<?xml version="1.0" encoding="UTF-8" standalone="no"?><svg xmlns="http://www.w3.org/2000/svg" xmlns:xlink="http://www.w3.org/1999/xlink" contentStyleType="text/css" height="384px" preserveAspectRatio="none" style="width:1190px;height:384px;background:#FFFFFF;" version="1.1" viewBox="0 0 1190 384" width="1190px" zoomAndPan="magnify"><defs/><g><rect height="26.4883" style="stroke:#00000000;stroke-width:1.0;fill:none;" width="499" x="338.5" y="5"/><text fill="#000000" font-family="sans-serif" font-size="14" font-weight="bold" lengthAdjust="spacing" textLength="489" x="343.5" y="23.5352">Api protocol has its own package that is the most abstract package</text><!--MD5=[abe7d94ec9c3b867e991413c3f4d1658]
cluster API protocol--><g id="cluster_API protocol"><path d="M8.5,43.4883 L98.5,43.4883 A3.75,3.75 0 0 1 101,45.9883 L108,65.9766 L791.5,65.9766 A2.5,2.5 0 0 1 794,68.4766 L794,205.9883 A2.5,2.5 0 0 1 791.5,208.4883 L8.5,208.4883 A2.5,2.5 0 0 1 6,205.9883 L6,45.9883 A2.5,2.5 0 0 1 8.5,43.4883 " style="stroke:#000000;stroke-width:1.5;fill:none;"/><line style="stroke:#000000;stroke-width:1.5;fill:none;" x1="6" x2="108" y1="65.9766" y2="65.9766"/><text fill="#000000" font-family="sans-serif" font-size="14" font-weight="bold" lengthAdjust="spacing" textLength="89" x="10" y="59.0234">API protocol</text></g><!--MD5=[b4e09d266be9964199f2622adcc056fa]
cluster Backend--><g id="cluster_Backend"><path d="M15.5,278.4883 L75.5,278.4883 A3.75,3.75 0 0 1 78,280.9883 L85,300.9766 L604.5,300.9766 A2.5,2.5 0 0 1 607,303.4766 L607,374.9883 A2.5,2.5 0 0 1 604.5,377.4883 L15.5,377.4883 A2.5,2.5 0 0 1 13,374.9883 L13,280.9883 A2.5,2.5 0 0 1 15.5,278.4883 " style="stroke:#000000;stroke-width:1.5;fill:none;"/><line style="stroke:#000000;stroke-width:1.5;fill:none;" x1="13" x2="85" y1="300.9766" y2="300.9766"/><text fill="#000000" font-family="sans-serif" font-size="14" font-weight="bold" lengthAdjust="spacing" textLength="59" x="17" y="294.0234">Backend</text></g><!--MD5=[fca8240bc233c06068545f9c8883ae88]
cluster Frontend--><g id="cluster_Frontend"><path d="M633.5,278.4883 L698.5,278.4883 A3.75,3.75 0 0 1 701,280.9883 L708,300.9766 L1180.5,300.9766 A2.5,2.5 0 0 1 1183,303.4766 L1183,374.9883 A2.5,2.5 0 0 1 1180.5,377.4883 L633.5,377.4883 A2.5,2.5 0 0 1 631,374.9883 L631,280.9883 A2.5,2.5 0 0 1 633.5,278.4883 " style="stroke:#000000;stroke-width:1.5;fill:none;"/><line style="stroke:#000000;stroke-width:1.5;fill:none;" x1="631" x2="708" y1="300.9766" y2="300.9766"/><text fill="#000000" font-family="sans-serif" font-size="14" font-weight="bold" lengthAdjust="spacing" textLength="64" x="635" y="294.0234">Frontend</text></g><!--MD5=[71e25dcddfab87e19c7e9e8ab5d13b08]
class GetTicketEndpoint--><g id="elem_GetTicketEndpoint"><rect codeLine="5" fill="#F1F1F1" height="113.9531" id="GetTicketEndpoint" rx="2.5" ry="2.5" style="stroke:#181818;stroke-width:0.5;" width="270" x="508" y="78.4883"/><ellipse cx="575.75" cy="94.4883" fill="#B4A7E5" rx="11" ry="11" style="stroke:#181818;stroke-width:1.0;"/><path d="M572.1777,90.7534 L572.1777,88.5952 L579.5571,88.5952 L579.5571,90.7534 L577.0918,90.7534 L577.0918,98.8301 L579.5571,98.8301 L579.5571,100.9883 L572.1777,100.9883 L572.1777,98.8301 L574.6431,98.8301 L574.6431,90.7534 Z " fill="#000000"/><text fill="#000000" font-family="sans-serif" font-size="14" font-style="italic" lengthAdjust="spacing" textLength="126" x="596.25" y="99.7793">GetTicketEndpoint</text><line style="stroke:#181818;stroke-width:0.5;" x1="509" x2="777" y1="110.4883" y2="110.4883"/><ellipse cx="519" cy="121.4883" fill="none" rx="3" ry="3" style="stroke:#038048;stroke-width:1.0;"/><text fill="#000000" font-family="sans-serif" font-size="14" lengthAdjust="spacing" textLength="98" x="528" y="128.0234">method: "GET"</text><ellipse cx="519" cy="137.9766" fill="none" rx="3" ry="3" style="stroke:#038048;stroke-width:1.0;"/><text fill="#000000" font-family="sans-serif" font-size="14" lengthAdjust="spacing" textLength="112" x="528" y="144.5117">url: "/tickets/:id"</text><ellipse cx="519" cy="154.4648" fill="none" rx="3" ry="3" style="stroke:#038048;stroke-width:1.0;"/><text fill="#000000" font-family="sans-serif" font-size="14" lengthAdjust="spacing" textLength="165" x="528" y="161">parameters: { id: string }</text><ellipse cx="519" cy="170.9531" fill="none" rx="3" ry="3" style="stroke:#038048;stroke-width:1.0;"/><text fill="#000000" font-family="sans-serif" font-size="14" lengthAdjust="spacing" textLength="244" x="528" y="177.4883">response: { contents: string } | Error</text><line style="stroke:#181818;stroke-width:0.5;" x1="509" x2="777" y1="184.4414" y2="184.4414"/></g><!--MD5=[444b2f7b81396c367c5de0626e95acee]
class DeleteTicketEndpoint--><g id="elem_DeleteTicketEndpoint"><rect codeLine="12" fill="#F1F1F1" height="113.9531" id="DeleteTicketEndpoint" rx="2.5" ry="2.5" style="stroke:#181818;stroke-width:0.5;" width="191" x="281.5" y="78.4883"/><ellipse cx="302.35" cy="94.4883" fill="#B4A7E5" rx="11" ry="11" style="stroke:#181818;stroke-width:1.0;"/><path d="M298.7777,90.7534 L298.7777,88.5952 L306.1571,88.5952 L306.1571,90.7534 L303.6918,90.7534 L303.6918,98.8301 L306.1571,98.8301 L306.1571,100.9883 L298.7777,100.9883 L298.7777,98.8301 L301.2431,98.8301 L301.2431,90.7534 Z " fill="#000000"/><text fill="#000000" font-family="sans-serif" font-size="14" font-style="italic" lengthAdjust="spacing" textLength="146" x="317.65" y="99.7793">DeleteTicketEndpoint</text><line style="stroke:#181818;stroke-width:0.5;" x1="282.5" x2="471.5" y1="110.4883" y2="110.4883"/><ellipse cx="292.5" cy="121.4883" fill="none" rx="3" ry="3" style="stroke:#038048;stroke-width:1.0;"/><text fill="#000000" font-family="sans-serif" font-size="14" lengthAdjust="spacing" textLength="121" x="301.5" y="128.0234">method: "DELETE"</text><ellipse cx="292.5" cy="137.9766" fill="none" rx="3" ry="3" style="stroke:#038048;stroke-width:1.0;"/><text fill="#000000" font-family="sans-serif" font-size="14" lengthAdjust="spacing" textLength="112" x="301.5" y="144.5117">url: "/tickets/:id"</text><ellipse cx="292.5" cy="154.4648" fill="none" rx="3" ry="3" style="stroke:#038048;stroke-width:1.0;"/><text fill="#000000" font-family="sans-serif" font-size="14" lengthAdjust="spacing" textLength="165" x="301.5" y="161">parameters: { id: string }</text><ellipse cx="292.5" cy="170.9531" fill="none" rx="3" ry="3" style="stroke:#038048;stroke-width:1.0;"/><text fill="#000000" font-family="sans-serif" font-size="14" lengthAdjust="spacing" textLength="129" x="301.5" y="177.4883">response: {} | Error</text><line style="stroke:#181818;stroke-width:0.5;" x1="282.5" x2="471.5" y1="184.4414" y2="184.4414"/></g><!--MD5=[6a669c6ab431d84e1b46613aca292d80]
class CreateTicketEndpoint--><g id="elem_CreateTicketEndpoint"><rect codeLine="19" fill="#F1F1F1" height="113.9531" id="CreateTicketEndpoint" rx="2.5" ry="2.5" style="stroke:#181818;stroke-width:0.5;" width="224" x="22" y="78.4883"/><ellipse cx="56.8" cy="94.4883" fill="#B4A7E5" rx="11" ry="11" style="stroke:#181818;stroke-width:1.0;"/><path d="M53.2277,90.7534 L53.2277,88.5952 L60.6071,88.5952 L60.6071,90.7534 L58.1418,90.7534 L58.1418,98.8301 L60.6071,98.8301 L60.6071,100.9883 L53.2277,100.9883 L53.2277,98.8301 L55.6931,98.8301 L55.6931,90.7534 Z " fill="#000000"/><text fill="#000000" font-family="sans-serif" font-size="14" font-style="italic" lengthAdjust="spacing" textLength="148" x="75.2" y="99.7793">CreateTicketEndpoint</text><line style="stroke:#181818;stroke-width:0.5;" x1="23" x2="245" y1="110.4883" y2="110.4883"/><ellipse cx="33" cy="121.4883" fill="none" rx="3" ry="3" style="stroke:#038048;stroke-width:1.0;"/><text fill="#000000" font-family="sans-serif" font-size="14" lengthAdjust="spacing" textLength="107" x="42" y="128.0234">method: "POST"</text><ellipse cx="33" cy="137.9766" fill="none" rx="3" ry="3" style="stroke:#038048;stroke-width:1.0;"/><text fill="#000000" font-family="sans-serif" font-size="14" lengthAdjust="spacing" textLength="137" x="42" y="144.5117">url: "/tickets/create"</text><ellipse cx="33" cy="154.4648" fill="none" rx="3" ry="3" style="stroke:#038048;stroke-width:1.0;"/><text fill="#000000" font-family="sans-serif" font-size="14" lengthAdjust="spacing" textLength="167" x="42" y="161">body: { contents: string }</text><ellipse cx="33" cy="170.9531" fill="none" rx="3" ry="3" style="stroke:#038048;stroke-width:1.0;"/><text fill="#000000" font-family="sans-serif" font-size="14" lengthAdjust="spacing" textLength="198" x="42" y="177.4883">response: { id: string } | Error</text><line style="stroke:#181818;stroke-width:0.5;" x1="23" x2="245" y1="184.4414" y2="184.4414"/></g><!--MD5=[989df79731722643c12476d397e219b1]
class GetTicketHandler--><g id="elem_GetTicketHandler"><rect codeLine="28" fill="#F1F1F1" height="48" id="GetTicketHandler" rx="2.5" ry="2.5" style="stroke:#181818;stroke-width:0.5;" width="150" x="441" y="313.4883"/><ellipse cx="456" cy="329.4883" fill="#ADD1B2" rx="11" ry="11" style="stroke:#181818;stroke-width:1.0;"/><path d="M458.4731,335.6313 Q457.8921,335.9302 457.2529,336.0796 Q456.6138,336.229 455.9082,336.229 Q453.4014,336.229 452.0815,334.5771 Q450.7617,332.9253 450.7617,329.8042 Q450.7617,326.6748 452.0815,325.0229 Q453.4014,323.3711 455.9082,323.3711 Q456.6138,323.3711 457.2612,323.5205 Q457.9087,323.6699 458.4731,323.9688 L458.4731,326.6914 Q457.8423,326.1104 457.2488,325.8406 Q456.6553,325.5708 456.0244,325.5708 Q454.6797,325.5708 453.9949,326.6375 Q453.3101,327.7041 453.3101,329.8042 Q453.3101,331.896 453.9949,332.9626 Q454.6797,334.0293 456.0244,334.0293 Q456.6553,334.0293 457.2488,333.7595 Q457.8423,333.4897 458.4731,332.9087 Z " fill="#000000"/><text fill="#000000" font-family="sans-serif" font-size="14" lengthAdjust="spacing" textLength="118" x="470" y="334.7793">GetTicketHandler</text><line style="stroke:#181818;stroke-width:0.5;" x1="442" x2="590" y1="345.4883" y2="345.4883"/><line style="stroke:#181818;stroke-width:0.5;" x1="442" x2="590" y1="353.4883" y2="353.4883"/></g><!--MD5=[228191eb233d076efcaddedb774ddd26]
class DeleteTicketHandler--><g id="elem_DeleteTicketHandler"><rect codeLine="30" fill="#F1F1F1" height="48" id="DeleteTicketHandler" rx="2.5" ry="2.5" style="stroke:#181818;stroke-width:0.5;" width="170" x="236" y="313.4883"/><ellipse cx="251" cy="329.4883" fill="#ADD1B2" rx="11" ry="11" style="stroke:#181818;stroke-width:1.0;"/><path d="M253.4731,335.6313 Q252.8921,335.9302 252.2529,336.0796 Q251.6138,336.229 250.9082,336.229 Q248.4014,336.229 247.0815,334.5771 Q245.7617,332.9253 245.7617,329.8042 Q245.7617,326.6748 247.0815,325.0229 Q248.4014,323.3711 250.9082,323.3711 Q251.6138,323.3711 252.2612,323.5205 Q252.9087,323.6699 253.4731,323.9688 L253.4731,326.6914 Q252.8423,326.1104 252.2488,325.8406 Q251.6553,325.5708 251.0244,325.5708 Q249.6797,325.5708 248.9949,326.6375 Q248.3101,327.7041 248.3101,329.8042 Q248.3101,331.896 248.9949,332.9626 Q249.6797,334.0293 251.0244,334.0293 Q251.6553,334.0293 252.2488,333.7595 Q252.8423,333.4897 253.4731,332.9087 Z " fill="#000000"/><text fill="#000000" font-family="sans-serif" font-size="14" lengthAdjust="spacing" textLength="138" x="265" y="334.7793">DeleteTicketHandler</text><line style="stroke:#181818;stroke-width:0.5;" x1="237" x2="405" y1="345.4883" y2="345.4883"/><line style="stroke:#181818;stroke-width:0.5;" x1="237" x2="405" y1="353.4883" y2="353.4883"/></g><!--MD5=[d23a913e10334f91e016ce4ec5198193]
class CreateTicketHandler--><g id="elem_CreateTicketHandler"><rect codeLine="32" fill="#F1F1F1" height="48" id="CreateTicketHandler" rx="2.5" ry="2.5" style="stroke:#181818;stroke-width:0.5;" width="172" x="29" y="313.4883"/><ellipse cx="44" cy="329.4883" fill="#ADD1B2" rx="11" ry="11" style="stroke:#181818;stroke-width:1.0;"/><path d="M46.4731,335.6313 Q45.8921,335.9302 45.2529,336.0796 Q44.6138,336.229 43.9082,336.229 Q41.4014,336.229 40.0815,334.5771 Q38.7617,332.9253 38.7617,329.8042 Q38.7617,326.6748 40.0815,325.0229 Q41.4014,323.3711 43.9082,323.3711 Q44.6138,323.3711 45.2612,323.5205 Q45.9087,323.6699 46.4731,323.9688 L46.4731,326.6914 Q45.8423,326.1104 45.2488,325.8406 Q44.6553,325.5708 44.0244,325.5708 Q42.6797,325.5708 41.9949,326.6375 Q41.3101,327.7041 41.3101,329.8042 Q41.3101,331.896 41.9949,332.9626 Q42.6797,334.0293 44.0244,334.0293 Q44.6553,334.0293 45.2488,333.7595 Q45.8423,333.4897 46.4731,332.9087 Z " fill="#000000"/><text fill="#000000" font-family="sans-serif" font-size="14" lengthAdjust="spacing" textLength="140" x="58" y="334.7793">CreateTicketHandler</text><line style="stroke:#181818;stroke-width:0.5;" x1="30" x2="200" y1="345.4883" y2="345.4883"/><line style="stroke:#181818;stroke-width:0.5;" x1="30" x2="200" y1="353.4883" y2="353.4883"/></g><!--MD5=[9bb6f55533dcdef1d7da7f1bfe69cbd5]
class GetTicketClient--><g id="elem_GetTicketClient"><rect codeLine="37" fill="#F1F1F1" height="48" id="GetTicketClient" rx="2.5" ry="2.5" style="stroke:#181818;stroke-width:0.5;" width="136" x="1031" y="313.4883"/><ellipse cx="1046" cy="329.4883" fill="#ADD1B2" rx="11" ry="11" style="stroke:#181818;stroke-width:1.0;"/><path d="M1048.4731,335.6313 Q1047.8921,335.9302 1047.2529,336.0796 Q1046.6138,336.229 1045.9082,336.229 Q1043.4014,336.229 1042.0815,334.5771 Q1040.7617,332.9253 1040.7617,329.8042 Q1040.7617,326.6748 1042.0815,325.0229 Q1043.4014,323.3711 1045.9082,323.3711 Q1046.6138,323.3711 1047.2612,323.5205 Q1047.9087,323.6699 1048.4731,323.9688 L1048.4731,326.6914 Q1047.8423,326.1104 1047.2488,325.8406 Q1046.6553,325.5708 1046.0244,325.5708 Q1044.6797,325.5708 1043.9949,326.6375 Q1043.3101,327.7041 1043.3101,329.8042 Q1043.3101,331.896 1043.9949,332.9626 Q1044.6797,334.0293 1046.0244,334.0293 Q1046.6553,334.0293 1047.2488,333.7595 Q1047.8423,333.4897 1048.4731,332.9087 Z " fill="#000000"/><text fill="#000000" font-family="sans-serif" font-size="14" lengthAdjust="spacing" textLength="104" x="1060" y="334.7793">GetTicketClient</text><line style="stroke:#181818;stroke-width:0.5;" x1="1032" x2="1166" y1="345.4883" y2="345.4883"/><line style="stroke:#181818;stroke-width:0.5;" x1="1032" x2="1166" y1="353.4883" y2="353.4883"/></g><!--MD5=[8d0aa5678b155fce628c3e0ecf94a115]
class DeleteTicketClient--><g id="elem_DeleteTicketClient"><rect codeLine="39" fill="#F1F1F1" height="48" id="DeleteTicketClient" rx="2.5" ry="2.5" style="stroke:#181818;stroke-width:0.5;" width="156" x="840" y="313.4883"/><ellipse cx="855" cy="329.4883" fill="#ADD1B2" rx="11" ry="11" style="stroke:#181818;stroke-width:1.0;"/><path d="M857.4731,335.6313 Q856.8921,335.9302 856.2529,336.0796 Q855.6138,336.229 854.9082,336.229 Q852.4014,336.229 851.0815,334.5771 Q849.7617,332.9253 849.7617,329.8042 Q849.7617,326.6748 851.0815,325.0229 Q852.4014,323.3711 854.9082,323.3711 Q855.6138,323.3711 856.2612,323.5205 Q856.9087,323.6699 857.4731,323.9688 L857.4731,326.6914 Q856.8423,326.1104 856.2488,325.8406 Q855.6553,325.5708 855.0244,325.5708 Q853.6797,325.5708 852.9949,326.6375 Q852.3101,327.7041 852.3101,329.8042 Q852.3101,331.896 852.9949,332.9626 Q853.6797,334.0293 855.0244,334.0293 Q855.6553,334.0293 856.2488,333.7595 Q856.8423,333.4897 857.4731,332.9087 Z " fill="#000000"/><text fill="#000000" font-family="sans-serif" font-size="14" lengthAdjust="spacing" textLength="124" x="869" y="334.7793">DeleteTicketClient</text><line style="stroke:#181818;stroke-width:0.5;" x1="841" x2="995" y1="345.4883" y2="345.4883"/><line style="stroke:#181818;stroke-width:0.5;" x1="841" x2="995" y1="353.4883" y2="353.4883"/></g><!--MD5=[8d24a22ca884952fff37507ee405a4fa]
class CreateTicketClient--><g id="elem_CreateTicketClient"><rect codeLine="41" fill="#F1F1F1" height="48" id="CreateTicketClient" rx="2.5" ry="2.5" style="stroke:#181818;stroke-width:0.5;" width="158" x="647" y="313.4883"/><ellipse cx="662" cy="329.4883" fill="#ADD1B2" rx="11" ry="11" style="stroke:#181818;stroke-width:1.0;"/><path d="M664.4731,335.6313 Q663.8921,335.9302 663.2529,336.0796 Q662.6138,336.229 661.9082,336.229 Q659.4014,336.229 658.0815,334.5771 Q656.7617,332.9253 656.7617,329.8042 Q656.7617,326.6748 658.0815,325.0229 Q659.4014,323.3711 661.9082,323.3711 Q662.6138,323.3711 663.2612,323.5205 Q663.9087,323.6699 664.4731,323.9688 L664.4731,326.6914 Q663.8423,326.1104 663.2488,325.8406 Q662.6553,325.5708 662.0244,325.5708 Q660.6797,325.5708 659.9949,326.6375 Q659.3101,327.7041 659.3101,329.8042 Q659.3101,331.896 659.9949,332.9626 Q660.6797,334.0293 662.0244,334.0293 Q662.6553,334.0293 663.2488,333.7595 Q663.8423,333.4897 664.4731,332.9087 Z " fill="#000000"/><text fill="#000000" font-family="sans-serif" font-size="14" lengthAdjust="spacing" textLength="126" x="676" y="334.7793">CreateTicketClient</text><line style="stroke:#181818;stroke-width:0.5;" x1="648" x2="804" y1="345.4883" y2="345.4883"/><line style="stroke:#181818;stroke-width:0.5;" x1="648" x2="804" y1="353.4883" y2="353.4883"/></g><!--MD5=[cd46d52a279d8ee6388990e9d8dba42e]
reverse link GetTicketEndpoint to GetTicketHandler--><g id="link_GetTicketEndpoint_GetTicketHandler"><path codeLine="29" d="M596.55,209.6383 C573.31,246.2383 546.78,288.0083 530.72,313.3083 " fill="none" id="GetTicketEndpoint-backto-GetTicketHandler" style="stroke:#181818;stroke-width:1.0;"/><polygon fill="none" points="590.66,205.8583,607.29,192.7283,602.47,213.3683,590.66,205.8583" style="stroke:#181818;stroke-width:1.0;"/></g><!--MD5=[b0812de993a31251e32f5da1054fd810]
reverse link DeleteTicketEndpoint to DeleteTicketHandler--><g id="link_DeleteTicketEndpoint_DeleteTicketHandler"><path codeLine="31" d="M355.82,212.1383 C345.74,248.1183 334.41,288.5883 327.49,313.3083 " fill="none" id="DeleteTicketEndpoint-backto-DeleteTicketHandler" style="stroke:#181818;stroke-width:1.0;"/><polygon fill="none" points="349.12,210.1083,361.25,192.7283,362.6,213.8783,349.12,210.1083" style="stroke:#181818;stroke-width:1.0;"/></g><!--MD5=[fc7751c13669b8d4bbbb60518a96c79a]
reverse link CreateTicketEndpoint to CreateTicketHandler--><g id="link_CreateTicketEndpoint_CreateTicketHandler"><path codeLine="33" d="M126.74,212.8883 C123.34,248.6783 119.53,288.7583 117.2,313.3083 " fill="none" id="CreateTicketEndpoint-backto-CreateTicketHandler" style="stroke:#181818;stroke-width:1.0;"/><polygon fill="none" points="119.8,211.9783,128.66,192.7283,133.73,213.3083,119.8,211.9783" style="stroke:#181818;stroke-width:1.0;"/></g><!--MD5=[89687997cb4d3cda4114bde27b0846de]
reverse link GetTicketEndpoint to GetTicketClient--><g id="link_GetTicketEndpoint_GetTicketClient"><path codeLine="38" d="M797.74,180.3383 C866.17,202.7383 946.29,233.1983 1014,270.4883 C1035.6,282.3883 1057.53,299.5583 1073.7,313.4083 " fill="none" id="GetTicketEndpoint-backto-GetTicketClient" style="stroke:#181818;stroke-width:1.0;"/><polygon fill="none" points="795.2,186.8783,778.3,174.0883,799.48,173.5483,795.2,186.8783" style="stroke:#181818;stroke-width:1.0;"/></g><!--MD5=[667ecc93d01c2bd52cf0a765ffbd9743]
reverse link DeleteTicketEndpoint to DeleteTicketClient--><g id="link_DeleteTicketEndpoint_DeleteTicketClient"><path codeLine="40" d="M463.8,203.1183 C472.7,208.1783 481.84,212.7583 491,216.4883 C629.46,272.8483 684.4,214.4583 823,270.4883 C848.32,280.7283 873.55,298.7083 891.64,313.3283 " fill="none" id="DeleteTicketEndpoint-backto-DeleteTicketClient" style="stroke:#181818;stroke-width:1.0;"/><polygon fill="none" points="459.9,208.9383,446.5,192.5283,467.22,196.9983,459.9,208.9383" style="stroke:#181818;stroke-width:1.0;"/></g><!--MD5=[f77fe10fa07665e3702a4b4c7d96efe2]
reverse link CreateTicketEndpoint to CreateTicketClient--><g id="link_CreateTicketEndpoint_CreateTicketClient"><path codeLine="42" d="M232.24,202.3783 C242.69,207.7283 253.38,212.5683 264,216.4883 C408.76,269.9683 461.07,220.2983 607,270.4883 C637.38,280.9383 669.07,298.9083 692.1,313.4683 " fill="none" id="CreateTicketEndpoint-backto-CreateTicketClient" style="stroke:#181818;stroke-width:1.0;"/><polygon fill="none" points="228.58,208.3583,214.36,192.6483,235.27,196.0583,228.58,208.3583" style="stroke:#181818;stroke-width:1.0;"/></g><!--MD5=[bbc5d3837e1c47b12b59896ddd99a98e]
@startuml sharing-three-package

title Api protocol has its own package that is the most abstract package

package "API protocol" {
    interface GetTicketEndpoint {
        +method: "GET"
        +url: "/tickets/:id"
        +parameters: { id: string }
        +response: { contents: string } | Error
    }

    interface DeleteTicketEndpoint {
        +method: "DELETE"
        +url: "/tickets/:id"
        +parameters: { id: string }
        +response: {} | Error
    }

    interface CreateTicketEndpoint {
        +method: "POST"
        +url: "/tickets/create"
        +body: { contents: string }
        +response: { id: string } | Error
    }
}

package "Backend" {
    class GetTicketHandler {}
    GetTicketHandler -u- -|> GetTicketEndpoint
    class DeleteTicketHandler {}
    DeleteTicketHandler -u- -|> DeleteTicketEndpoint
    class CreateTicketHandler {}
    CreateTicketHandler -u- -|> CreateTicketEndpoint
}

package "Frontend" {
    class GetTicketClient {}
    GetTicketClient -u- -|> GetTicketEndpoint
    class DeleteTicketClient {}
    DeleteTicketClient -u- -|> DeleteTicketEndpoint
    class CreateTicketClient {}
    CreateTicketClient -u- -|> CreateTicketEndpoint
}

@enduml

PlantUML version 1.2022.5(Sat Apr 30 12:55:52 CEST 2022)
(GPL source distribution)
Java Runtime: OpenJDK Runtime Environment
JVM: OpenJDK 64-Bit Server VM
Default Encoding: UTF-8
Language: en
Country: GB
--></g></svg>