<?xml version="1.0" encoding="UTF-8" standalone="no"?><svg xmlns="http://www.w3.org/2000/svg" xmlns:xlink="http://www.w3.org/1999/xlink" contentStyleType="text/css" height="531px" preserveAspectRatio="none" style="width:849px;height:531px;background:#FFFFFF;" version="1.1" viewBox="0 0 849 531" width="849px" zoomAndPan="magnify"><defs/><g><rect height="26.4883" style="stroke:#00000000;stroke-width:1.0;fill:none;" width="431" x="202" y="5"/><text fill="#000000" font-family="sans-serif" font-size="14" font-weight="bold" lengthAdjust="spacing" textLength="421" x="207" y="23.5352">Api protocol is the most abstract part of backend package</text><!--MD5=[b4e09d266be9964199f2622adcc056fa]
cluster Backend--><g id="cluster_Backend"><path d="M8.5,43.4883 L68.5,43.4883 A3.75,3.75 0 0 1 71,45.9883 L78,65.9766 L839.5,65.9766 A2.5,2.5 0 0 1 842,68.4766 L842,376.9883 A2.5,2.5 0 0 1 839.5,379.4883 L8.5,379.4883 A2.5,2.5 0 0 1 6,376.9883 L6,45.9883 A2.5,2.5 0 0 1 8.5,43.4883 " style="stroke:#000000;stroke-width:1.5;fill:none;"/><line style="stroke:#000000;stroke-width:1.5;fill:none;" x1="6" x2="78" y1="65.9766" y2="65.9766"/><text fill="#000000" font-family="sans-serif" font-size="14" font-weight="bold" lengthAdjust="spacing" textLength="59" x="10" y="59.0234">Backend</text></g><!--MD5=[abe7d94ec9c3b867e991413c3f4d1658]
cluster API protocol--><g id="cluster_API protocol"><path d="M32.5,190.4883 L122.5,190.4883 A3.75,3.75 0 0 1 125,192.9883 L132,212.9766 L815.5,212.9766 A2.5,2.5 0 0 1 818,215.4766 L818,352.9883 A2.5,2.5 0 0 1 815.5,355.4883 L32.5,355.4883 A2.5,2.5 0 0 1 30,352.9883 L30,192.9883 A2.5,2.5 0 0 1 32.5,190.4883 " style="stroke:#000000;stroke-width:1.5;fill:none;"/><line style="stroke:#000000;stroke-width:1.5;fill:none;" x1="30" x2="132" y1="212.9766" y2="212.9766"/><text fill="#000000" font-family="sans-serif" font-size="14" font-weight="bold" lengthAdjust="spacing" textLength="89" x="34" y="206.0234">API protocol</text></g><!--MD5=[fca8240bc233c06068545f9c8883ae88]
cluster Frontend--><g id="cluster_Frontend"><path d="M116.5,425.4883 L181.5,425.4883 A3.75,3.75 0 0 1 184,427.9883 L191,447.9766 L663.5,447.9766 A2.5,2.5 0 0 1 666,450.4766 L666,521.9883 A2.5,2.5 0 0 1 663.5,524.4883 L116.5,524.4883 A2.5,2.5 0 0 1 114,521.9883 L114,427.9883 A2.5,2.5 0 0 1 116.5,425.4883 " style="stroke:#000000;stroke-width:1.5;fill:none;"/><line style="stroke:#000000;stroke-width:1.5;fill:none;" x1="114" x2="191" y1="447.9766" y2="447.9766"/><text fill="#000000" font-family="sans-serif" font-size="14" font-weight="bold" lengthAdjust="spacing" textLength="64" x="118" y="441.0234">Frontend</text></g><!--MD5=[71e25dcddfab87e19c7e9e8ab5d13b08]
class GetTicketEndpoint--><g id="elem_GetTicketEndpoint"><rect codeLine="5" fill="#F1F1F1" height="97.4648" id="GetTicketEndpoint" rx="2.5" ry="2.5" style="stroke:#181818;stroke-width:0.5;" width="270" x="532" y="233.9883"/><ellipse cx="599.75" cy="249.9883" fill="#B4A7E5" rx="11" ry="11" style="stroke:#181818;stroke-width:1.0;"/><path d="M596.1777,246.2534 L596.1777,244.0952 L603.5571,244.0952 L603.5571,246.2534 L601.0918,246.2534 L601.0918,254.3301 L603.5571,254.3301 L603.5571,256.4883 L596.1777,256.4883 L596.1777,254.3301 L598.6431,254.3301 L598.6431,246.2534 Z " fill="#000000"/><text fill="#000000" font-family="sans-serif" font-size="14" font-style="italic" lengthAdjust="spacing" textLength="126" x="620.25" y="255.2793">GetTicketEndpoint</text><line style="stroke:#181818;stroke-width:0.5;" x1="533" x2="801" y1="265.9883" y2="265.9883"/><ellipse cx="543" cy="276.9883" fill="none" rx="3" ry="3" style="stroke:#038048;stroke-width:1.0;"/><text fill="#000000" font-family="sans-serif" font-size="14" lengthAdjust="spacing" textLength="112" x="552" y="283.5234">url: "/tickets/:id"</text><ellipse cx="543" cy="293.4766" fill="none" rx="3" ry="3" style="stroke:#038048;stroke-width:1.0;"/><text fill="#000000" font-family="sans-serif" font-size="14" lengthAdjust="spacing" textLength="165" x="552" y="300.0117">parameters: { id: string }</text><ellipse cx="543" cy="309.9648" fill="none" rx="3" ry="3" style="stroke:#038048;stroke-width:1.0;"/><text fill="#000000" font-family="sans-serif" font-size="14" lengthAdjust="spacing" textLength="244" x="552" y="316.5">response: { contents: string } | Error</text><line style="stroke:#181818;stroke-width:0.5;" x1="533" x2="801" y1="323.4531" y2="323.4531"/></g><!--MD5=[444b2f7b81396c367c5de0626e95acee]
class DeleteTicketEndpoint--><g id="elem_DeleteTicketEndpoint"><rect codeLine="11" fill="#F1F1F1" height="113.9531" id="DeleteTicketEndpoint" rx="2.5" ry="2.5" style="stroke:#181818;stroke-width:0.5;" width="191" x="305.5" y="225.4883"/><ellipse cx="326.35" cy="241.4883" fill="#B4A7E5" rx="11" ry="11" style="stroke:#181818;stroke-width:1.0;"/><path d="M322.7777,237.7534 L322.7777,235.5952 L330.1571,235.5952 L330.1571,237.7534 L327.6918,237.7534 L327.6918,245.8301 L330.1571,245.8301 L330.1571,247.9883 L322.7777,247.9883 L322.7777,245.8301 L325.2431,245.8301 L325.2431,237.7534 Z " fill="#000000"/><text fill="#000000" font-family="sans-serif" font-size="14" font-style="italic" lengthAdjust="spacing" textLength="146" x="341.65" y="246.7793">DeleteTicketEndpoint</text><line style="stroke:#181818;stroke-width:0.5;" x1="306.5" x2="495.5" y1="257.4883" y2="257.4883"/><ellipse cx="316.5" cy="268.4883" fill="none" rx="3" ry="3" style="stroke:#038048;stroke-width:1.0;"/><text fill="#000000" font-family="sans-serif" font-size="14" lengthAdjust="spacing" textLength="121" x="325.5" y="275.0234">method: "DELETE"</text><ellipse cx="316.5" cy="284.9766" fill="none" rx="3" ry="3" style="stroke:#038048;stroke-width:1.0;"/><text fill="#000000" font-family="sans-serif" font-size="14" lengthAdjust="spacing" textLength="112" x="325.5" y="291.5117">url: "/tickets/:id"</text><ellipse cx="316.5" cy="301.4648" fill="none" rx="3" ry="3" style="stroke:#038048;stroke-width:1.0;"/><text fill="#000000" font-family="sans-serif" font-size="14" lengthAdjust="spacing" textLength="165" x="325.5" y="308">parameters: { id: string }</text><ellipse cx="316.5" cy="317.9531" fill="none" rx="3" ry="3" style="stroke:#038048;stroke-width:1.0;"/><text fill="#000000" font-family="sans-serif" font-size="14" lengthAdjust="spacing" textLength="129" x="325.5" y="324.4883">response: {} | Error</text><line style="stroke:#181818;stroke-width:0.5;" x1="306.5" x2="495.5" y1="331.4414" y2="331.4414"/></g><!--MD5=[6a669c6ab431d84e1b46613aca292d80]
class CreateTicketEndpoint--><g id="elem_CreateTicketEndpoint"><rect codeLine="18" fill="#F1F1F1" height="113.9531" id="CreateTicketEndpoint" rx="2.5" ry="2.5" style="stroke:#181818;stroke-width:0.5;" width="224" x="46" y="225.4883"/><ellipse cx="80.8" cy="241.4883" fill="#B4A7E5" rx="11" ry="11" style="stroke:#181818;stroke-width:1.0;"/><path d="M77.2277,237.7534 L77.2277,235.5952 L84.6071,235.5952 L84.6071,237.7534 L82.1418,237.7534 L82.1418,245.8301 L84.6071,245.8301 L84.6071,247.9883 L77.2277,247.9883 L77.2277,245.8301 L79.6931,245.8301 L79.6931,237.7534 Z " fill="#000000"/><text fill="#000000" font-family="sans-serif" font-size="14" font-style="italic" lengthAdjust="spacing" textLength="148" x="99.2" y="246.7793">CreateTicketEndpoint</text><line style="stroke:#181818;stroke-width:0.5;" x1="47" x2="269" y1="257.4883" y2="257.4883"/><ellipse cx="57" cy="268.4883" fill="none" rx="3" ry="3" style="stroke:#038048;stroke-width:1.0;"/><text fill="#000000" font-family="sans-serif" font-size="14" lengthAdjust="spacing" textLength="107" x="66" y="275.0234">method: "POST"</text><ellipse cx="57" cy="284.9766" fill="none" rx="3" ry="3" style="stroke:#038048;stroke-width:1.0;"/><text fill="#000000" font-family="sans-serif" font-size="14" lengthAdjust="spacing" textLength="137" x="66" y="291.5117">url: "/tickets/create"</text><ellipse cx="57" cy="301.4648" fill="none" rx="3" ry="3" style="stroke:#038048;stroke-width:1.0;"/><text fill="#000000" font-family="sans-serif" font-size="14" lengthAdjust="spacing" textLength="167" x="66" y="308">body: { contents: string }</text><ellipse cx="57" cy="317.9531" fill="none" rx="3" ry="3" style="stroke:#038048;stroke-width:1.0;"/><text fill="#000000" font-family="sans-serif" font-size="14" lengthAdjust="spacing" textLength="198" x="66" y="324.4883">response: { id: string } | Error</text><line style="stroke:#181818;stroke-width:0.5;" x1="47" x2="269" y1="331.4414" y2="331.4414"/></g><!--MD5=[989df79731722643c12476d397e219b1]
class GetTicketHandler--><g id="elem_GetTicketHandler"><rect codeLine="27" fill="#F1F1F1" height="48" id="GetTicketHandler" rx="2.5" ry="2.5" style="stroke:#181818;stroke-width:0.5;" width="150" x="521" y="102.4883"/><ellipse cx="536" cy="118.4883" fill="#ADD1B2" rx="11" ry="11" style="stroke:#181818;stroke-width:1.0;"/><path d="M538.4731,124.6313 Q537.8921,124.9302 537.2529,125.0796 Q536.6138,125.229 535.9082,125.229 Q533.4014,125.229 532.0815,123.5771 Q530.7617,121.9253 530.7617,118.8042 Q530.7617,115.6748 532.0815,114.0229 Q533.4014,112.3711 535.9082,112.3711 Q536.6138,112.3711 537.2612,112.5205 Q537.9087,112.6699 538.4731,112.9688 L538.4731,115.6914 Q537.8423,115.1104 537.2488,114.8406 Q536.6553,114.5708 536.0244,114.5708 Q534.6797,114.5708 533.9949,115.6375 Q533.3101,116.7041 533.3101,118.8042 Q533.3101,120.896 533.9949,121.9626 Q534.6797,123.0293 536.0244,123.0293 Q536.6553,123.0293 537.2488,122.7595 Q537.8423,122.4897 538.4731,121.9087 Z " fill="#000000"/><text fill="#000000" font-family="sans-serif" font-size="14" lengthAdjust="spacing" textLength="118" x="550" y="123.7793">GetTicketHandler</text><line style="stroke:#181818;stroke-width:0.5;" x1="522" x2="670" y1="134.4883" y2="134.4883"/><line style="stroke:#181818;stroke-width:0.5;" x1="522" x2="670" y1="142.4883" y2="142.4883"/></g><!--MD5=[228191eb233d076efcaddedb774ddd26]
class DeleteTicketHandler--><g id="elem_DeleteTicketHandler"><rect codeLine="29" fill="#F1F1F1" height="48" id="DeleteTicketHandler" rx="2.5" ry="2.5" style="stroke:#181818;stroke-width:0.5;" width="170" x="316" y="102.4883"/><ellipse cx="331" cy="118.4883" fill="#ADD1B2" rx="11" ry="11" style="stroke:#181818;stroke-width:1.0;"/><path d="M333.4731,124.6313 Q332.8921,124.9302 332.2529,125.0796 Q331.6138,125.229 330.9082,125.229 Q328.4014,125.229 327.0815,123.5771 Q325.7617,121.9253 325.7617,118.8042 Q325.7617,115.6748 327.0815,114.0229 Q328.4014,112.3711 330.9082,112.3711 Q331.6138,112.3711 332.2612,112.5205 Q332.9087,112.6699 333.4731,112.9688 L333.4731,115.6914 Q332.8423,115.1104 332.2488,114.8406 Q331.6553,114.5708 331.0244,114.5708 Q329.6797,114.5708 328.9949,115.6375 Q328.3101,116.7041 328.3101,118.8042 Q328.3101,120.896 328.9949,121.9626 Q329.6797,123.0293 331.0244,123.0293 Q331.6553,123.0293 332.2488,122.7595 Q332.8423,122.4897 333.4731,121.9087 Z " fill="#000000"/><text fill="#000000" font-family="sans-serif" font-size="14" lengthAdjust="spacing" textLength="138" x="345" y="123.7793">DeleteTicketHandler</text><line style="stroke:#181818;stroke-width:0.5;" x1="317" x2="485" y1="134.4883" y2="134.4883"/><line style="stroke:#181818;stroke-width:0.5;" x1="317" x2="485" y1="142.4883" y2="142.4883"/></g><!--MD5=[d23a913e10334f91e016ce4ec5198193]
class CreateTicketHandler--><g id="elem_CreateTicketHandler"><rect codeLine="31" fill="#F1F1F1" height="48" id="CreateTicketHandler" rx="2.5" ry="2.5" style="stroke:#181818;stroke-width:0.5;" width="172" x="109" y="102.4883"/><ellipse cx="124" cy="118.4883" fill="#ADD1B2" rx="11" ry="11" style="stroke:#181818;stroke-width:1.0;"/><path d="M126.4731,124.6313 Q125.8921,124.9302 125.2529,125.0796 Q124.6138,125.229 123.9082,125.229 Q121.4014,125.229 120.0815,123.5771 Q118.7617,121.9253 118.7617,118.8042 Q118.7617,115.6748 120.0815,114.0229 Q121.4014,112.3711 123.9082,112.3711 Q124.6138,112.3711 125.2612,112.5205 Q125.9087,112.6699 126.4731,112.9688 L126.4731,115.6914 Q125.8423,115.1104 125.2488,114.8406 Q124.6553,114.5708 124.0244,114.5708 Q122.6797,114.5708 121.9949,115.6375 Q121.3101,116.7041 121.3101,118.8042 Q121.3101,120.896 121.9949,121.9626 Q122.6797,123.0293 124.0244,123.0293 Q124.6553,123.0293 125.2488,122.7595 Q125.8423,122.4897 126.4731,121.9087 Z " fill="#000000"/><text fill="#000000" font-family="sans-serif" font-size="14" lengthAdjust="spacing" textLength="140" x="138" y="123.7793">CreateTicketHandler</text><line style="stroke:#181818;stroke-width:0.5;" x1="110" x2="280" y1="134.4883" y2="134.4883"/><line style="stroke:#181818;stroke-width:0.5;" x1="110" x2="280" y1="142.4883" y2="142.4883"/></g><!--MD5=[9bb6f55533dcdef1d7da7f1bfe69cbd5]
class GetTicketClient--><g id="elem_GetTicketClient"><rect codeLine="37" fill="#F1F1F1" height="48" id="GetTicketClient" rx="2.5" ry="2.5" style="stroke:#181818;stroke-width:0.5;" width="136" x="514" y="460.4883"/><ellipse cx="529" cy="476.4883" fill="#ADD1B2" rx="11" ry="11" style="stroke:#181818;stroke-width:1.0;"/><path d="M531.4731,482.6313 Q530.8921,482.9302 530.2529,483.0796 Q529.6138,483.229 528.9082,483.229 Q526.4014,483.229 525.0815,481.5771 Q523.7617,479.9253 523.7617,476.8042 Q523.7617,473.6748 525.0815,472.0229 Q526.4014,470.3711 528.9082,470.3711 Q529.6138,470.3711 530.2612,470.5205 Q530.9087,470.6699 531.4731,470.9688 L531.4731,473.6914 Q530.8423,473.1104 530.2488,472.8406 Q529.6553,472.5708 529.0244,472.5708 Q527.6797,472.5708 526.9949,473.6375 Q526.3101,474.7041 526.3101,476.8042 Q526.3101,478.896 526.9949,479.9626 Q527.6797,481.0293 529.0244,481.0293 Q529.6553,481.0293 530.2488,480.7595 Q530.8423,480.4897 531.4731,479.9087 Z " fill="#000000"/><text fill="#000000" font-family="sans-serif" font-size="14" lengthAdjust="spacing" textLength="104" x="543" y="481.7793">GetTicketClient</text><line style="stroke:#181818;stroke-width:0.5;" x1="515" x2="649" y1="492.4883" y2="492.4883"/><line style="stroke:#181818;stroke-width:0.5;" x1="515" x2="649" y1="500.4883" y2="500.4883"/></g><!--MD5=[8d0aa5678b155fce628c3e0ecf94a115]
class DeleteTicketClient--><g id="elem_DeleteTicketClient"><rect codeLine="39" fill="#F1F1F1" height="48" id="DeleteTicketClient" rx="2.5" ry="2.5" style="stroke:#181818;stroke-width:0.5;" width="156" x="323" y="460.4883"/><ellipse cx="338" cy="476.4883" fill="#ADD1B2" rx="11" ry="11" style="stroke:#181818;stroke-width:1.0;"/><path d="M340.4731,482.6313 Q339.8921,482.9302 339.2529,483.0796 Q338.6138,483.229 337.9082,483.229 Q335.4014,483.229 334.0815,481.5771 Q332.7617,479.9253 332.7617,476.8042 Q332.7617,473.6748 334.0815,472.0229 Q335.4014,470.3711 337.9082,470.3711 Q338.6138,470.3711 339.2612,470.5205 Q339.9087,470.6699 340.4731,470.9688 L340.4731,473.6914 Q339.8423,473.1104 339.2488,472.8406 Q338.6553,472.5708 338.0244,472.5708 Q336.6797,472.5708 335.9949,473.6375 Q335.3101,474.7041 335.3101,476.8042 Q335.3101,478.896 335.9949,479.9626 Q336.6797,481.0293 338.0244,481.0293 Q338.6553,481.0293 339.2488,480.7595 Q339.8423,480.4897 340.4731,479.9087 Z " fill="#000000"/><text fill="#000000" font-family="sans-serif" font-size="14" lengthAdjust="spacing" textLength="124" x="352" y="481.7793">DeleteTicketClient</text><line style="stroke:#181818;stroke-width:0.5;" x1="324" x2="478" y1="492.4883" y2="492.4883"/><line style="stroke:#181818;stroke-width:0.5;" x1="324" x2="478" y1="500.4883" y2="500.4883"/></g><!--MD5=[8d24a22ca884952fff37507ee405a4fa]
class CreateTicketClient--><g id="elem_CreateTicketClient"><rect codeLine="41" fill="#F1F1F1" height="48" id="CreateTicketClient" rx="2.5" ry="2.5" style="stroke:#181818;stroke-width:0.5;" width="158" x="130" y="460.4883"/><ellipse cx="145" cy="476.4883" fill="#ADD1B2" rx="11" ry="11" style="stroke:#181818;stroke-width:1.0;"/><path d="M147.4731,482.6313 Q146.8921,482.9302 146.2529,483.0796 Q145.6138,483.229 144.9082,483.229 Q142.4014,483.229 141.0815,481.5771 Q139.7617,479.9253 139.7617,476.8042 Q139.7617,473.6748 141.0815,472.0229 Q142.4014,470.3711 144.9082,470.3711 Q145.6138,470.3711 146.2612,470.5205 Q146.9087,470.6699 147.4731,470.9688 L147.4731,473.6914 Q146.8423,473.1104 146.2488,472.8406 Q145.6553,472.5708 145.0244,472.5708 Q143.6797,472.5708 142.9949,473.6375 Q142.3101,474.7041 142.3101,476.8042 Q142.3101,478.896 142.9949,479.9626 Q143.6797,481.0293 145.0244,481.0293 Q145.6553,481.0293 146.2488,480.7595 Q146.8423,480.4897 147.4731,479.9087 Z " fill="#000000"/><text fill="#000000" font-family="sans-serif" font-size="14" lengthAdjust="spacing" textLength="126" x="159" y="481.7793">CreateTicketClient</text><line style="stroke:#181818;stroke-width:0.5;" x1="131" x2="287" y1="492.4883" y2="492.4883"/><line style="stroke:#181818;stroke-width:0.5;" x1="131" x2="287" y1="500.4883" y2="500.4883"/></g><!--MD5=[832a2323cfd51b1f9810e4cbd278068f]
link GetTicketHandler to GetTicketEndpoint--><g id="link_GetTicketHandler_GetTicketEndpoint"><path codeLine="28" d="M606.63,150.5483 C614.56,167.7383 625.81,192.1483 636.46,215.2383 " fill="none" id="GetTicketHandler-to-GetTicketEndpoint" style="stroke:#181818;stroke-width:1.0;"/><polygon fill="none" points="642.96,212.6283,644.98,233.7283,630.25,218.4883,642.96,212.6283" style="stroke:#181818;stroke-width:1.0;"/></g><!--MD5=[31f2a83c8fe0d8332c7a51fd90aac900]
link DeleteTicketHandler to DeleteTicketEndpoint--><g id="link_DeleteTicketHandler_DeleteTicketEndpoint"><path codeLine="30" d="M401,150.5483 C401,165.2583 401,185.2483 401,205.1783 " fill="none" id="DeleteTicketHandler-to-DeleteTicketEndpoint" style="stroke:#181818;stroke-width:1.0;"/><polygon fill="none" points="408,205.2883,401,225.2883,394,205.2883,408,205.2883" style="stroke:#181818;stroke-width:1.0;"/></g><!--MD5=[d19eac8f70886bf187ddb37727bd7600]
link CreateTicketHandler to CreateTicketEndpoint--><g id="link_CreateTicketHandler_CreateTicketEndpoint"><path codeLine="32" d="M189.46,150.5483 C185.89,165.4083 181.02,185.6683 176.18,205.7983 " fill="none" id="CreateTicketHandler-to-CreateTicketEndpoint" style="stroke:#181818;stroke-width:1.0;"/><polygon fill="none" points="182.98,207.4783,171.5,225.2883,169.37,204.2083,182.98,207.4783" style="stroke:#181818;stroke-width:1.0;"/></g><!--MD5=[89687997cb4d3cda4114bde27b0846de]
reverse link GetTicketEndpoint to GetTicketClient--><g id="link_GetTicketEndpoint_GetTicketClient"><path codeLine="38" d="M638.86,349.7083 C622.64,387.8583 603.27,433.4383 591.84,460.3383 " fill="none" id="GetTicketEndpoint-backto-GetTicketClient" style="stroke:#181818;stroke-width:1.0;"/><polygon fill="none" points="632.48,346.8083,646.75,331.1383,645.37,352.2883,632.48,346.8083" style="stroke:#181818;stroke-width:1.0;"/></g><!--MD5=[667ecc93d01c2bd52cf0a765ffbd9743]
reverse link DeleteTicketEndpoint to DeleteTicketClient--><g id="link_DeleteTicketEndpoint_DeleteTicketClient"><path codeLine="40" d="M401,359.8883 C401,395.6783 401,435.7583 401,460.3083 " fill="none" id="DeleteTicketEndpoint-backto-DeleteTicketClient" style="stroke:#181818;stroke-width:1.0;"/><polygon fill="none" points="394,359.7283,401,339.7283,408,359.7283,394,359.7283" style="stroke:#181818;stroke-width:1.0;"/></g><!--MD5=[f77fe10fa07665e3702a4b4c7d96efe2]
reverse link CreateTicketEndpoint to CreateTicketClient--><g id="link_CreateTicketEndpoint_CreateTicketClient"><path codeLine="42" d="M177.29,359.1383 C186.47,395.1183 196.78,435.5883 203.09,460.3083 " fill="none" id="CreateTicketEndpoint-backto-CreateTicketClient" style="stroke:#181818;stroke-width:1.0;"/><polygon fill="none" points="170.5,360.8383,172.34,339.7283,184.07,357.3783,170.5,360.8383" style="stroke:#181818;stroke-width:1.0;"/></g><!--MD5=[43237a3b502c164b430c4b27e40f11ec]
@startuml sharing-two-package
title "Api protocol is the most abstract part of backend package"

package "Backend" {
    package "API protocol" {
        interface GetTicketEndpoint {
            +url: "/tickets/:id"
            +parameters: { id: string }
            +response: { contents: string } | Error
        }

        interface DeleteTicketEndpoint {
            +method: "DELETE"
            +url: "/tickets/:id"
            +parameters: { id: string }
            +response: {} | Error
        }

        interface CreateTicketEndpoint {
            +method: "POST"
            +url: "/tickets/create"
            +body: { contents: string }
            +response: { id: string } | Error
        }
    }

    together {
        class GetTicketHandler {}
        GetTicketHandler - -|> GetTicketEndpoint
        class DeleteTicketHandler {}
        DeleteTicketHandler - -|> DeleteTicketEndpoint
        class CreateTicketHandler {}
        CreateTicketHandler - -|> CreateTicketEndpoint
    }
}

package "Frontend" {
    class GetTicketClient {}
    GetTicketClient -u- -|> GetTicketEndpoint
    class DeleteTicketClient {}
    DeleteTicketClient -u- -|> DeleteTicketEndpoint
    class CreateTicketClient {}
    CreateTicketClient -u- -|> CreateTicketEndpoint
}


@enduml

PlantUML version 1.2022.5(Sat Apr 30 12:55:52 CEST 2022)
(GPL source distribution)
Java Runtime: OpenJDK Runtime Environment
JVM: OpenJDK 64-Bit Server VM
Default Encoding: UTF-8
Language: en
Country: GB
--></g></svg>